<svg xmlns="http://www.w3.org/2000/svg" version="1.1" xmlns:xlink="http://www.w3.org/1999/xlink" width="512" height="512" x="0" y="0" viewBox="0 0 512 512" style="enable-background:new 0 0 512 512" xml:space="preserve" class=""><g><path d="M256 335.266c-71.492 0-129.656 58.164-129.656 129.656 0 4.137.203 8.226.586 12.262C165.676 499.883 209.902 512 256 512s90.324-12.117 129.07-34.816c.383-4.04.586-8.125.586-12.262 0-71.492-58.164-129.656-129.656-129.656zm0 0" fill="#ffe082" opacity="1" data-original="#000000" class=""></path><path d="M437.02 74.98C388.668 26.63 324.383 0 256 0S123.332 26.629 74.98 74.98C26.63 123.332 0 187.617 0 256c0 68.379 26.629 132.668 74.98 181.02a259.486 259.486 0 0 0 21.598 19.3c3.356-62.86 43.238-116.175 98.754-139.066-30.516-19.895-50.73-54.32-50.73-93.387 0-61.426 49.972-111.398 111.398-111.398s111.398 49.972 111.398 111.398c0 39.067-20.214 73.492-50.73 93.387 55.516 22.89 95.398 76.207 98.754 139.066a260.187 260.187 0 0 0 21.598-19.3C485.37 388.668 512 324.379 512 256c0-68.383-26.629-132.668-74.98-181.02zm0 0" fill="#ffe082" opacity="1" data-original="#000000" class=""></path><path d="M337.398 223.867c0-44.887-36.515-81.398-81.398-81.398s-81.398 36.515-81.398 81.398c0 44.883 36.515 81.399 81.398 81.399s81.398-36.516 81.398-81.399zm0 0" fill="#ffe082" opacity="1" data-original="#000000" class=""></path></g></svg>