<svg xmlns="http://www.w3.org/2000/svg" version="1.1" xmlns:xlink="http://www.w3.org/1999/xlink" width="512" height="512" x="0" y="0" viewBox="0 0 442 442" style="enable-background:new 0 0 512 512" xml:space="preserve" class=""><g><path d="M105.4 221c0 9.391-7.609 17-17 17h-34c-9.391 0-17-7.609-17-17s7.609-17 17-17h34c9.392 0 17 7.609 17 17zm0-108.8c0-9.391-7.609-17-17-17h-34c-9.391 0-17 7.609-17 17s7.609 17 17 17h34c9.392 0 17-7.609 17-17zm0 217.601c0-9.393-7.609-17-17-17h-34c-9.391 0-17 7.607-17 17 0 9.391 7.609 17 17 17h34c9.392 0 17-7.61 17-17zM404.6 54.4v333.2c0 30.043-24.357 54.4-54.398 54.4h-238c-30.042 0-54.4-24.357-54.4-54.4v-27.2h30.6c16.871 0 30.6-13.73 30.6-30.6 0-16.871-13.729-30.602-30.6-30.602H57.8v-47.6h30.6c16.871 0 30.6-13.729 30.6-30.6s-13.729-30.6-30.6-30.6H57.8v-47.6h30.6c16.871 0 30.6-13.729 30.6-30.6 0-16.871-13.729-30.6-30.6-30.6H57.8V54.4C57.8 24.358 82.158 0 112.2 0h238c30.042 0 54.4 24.357 54.4 54.4zM188.945 161.255c0 28.968 23.487 52.455 52.455 52.455 28.969 0 52.455-23.487 52.455-52.455s-23.486-52.456-52.455-52.456c-28.967.001-52.455 23.488-52.455 52.456zM323 289.482c0-32.184-26.098-58.283-58.283-58.283H218.09c-32.191 0-58.29 26.1-58.29 58.283V312.8H323v-23.318z" fill="#ffffff" opacity="1" data-original="#000000" class=""></path></g></svg>