<svg xmlns="http://www.w3.org/2000/svg" version="1.1" xmlns:xlink="http://www.w3.org/1999/xlink" width="512" height="512" x="0" y="0" viewBox="0 0 512 512" style="enable-background:new 0 0 512 512" xml:space="preserve"><g><path d="M74.742 328.078a15.016 15.016 0 0 0 2.797 17.34l3.668 3.668c10.598-12.559 22.95-26.188 37.93-41.164 1.058-1.059 2.148-1.57 3.21-2.547L98.75 281.773c-13.719 24.813-21.719 41.766-24.008 46.305zM203.988 392.773c-15.015 15.016-28.61 27.391-41.097 37.997l4.968 4.968a14.993 14.993 0 0 0 17.465 2.735c7.77-4.004 19.988-9.754 45.926-24.2l-24.71-24.71c-.977 1.066-1.49 2.152-2.552 3.21zM195.992 315.938c-10.84-10.84-41.324-1.122-55.644 13.195-47.907 47.906-69.543 81.87-79.258 101.926a14.992 14.992 0 0 0 2.89 17.14 15.01 15.01 0 0 0 17.165 2.89c19.605-9.519 53.156-31.054 101.632-79.527 15.746-15.753 23.516-45.32 13.227-55.613zM46.82 199.71 4.395 242.138a14.997 14.997 0 0 0-2.383 18.105c3.316 5.805 10.261 8.762 16.87 6.992 22.93-6.148 43.106-8.746 56.692-5.261 19.328-34.364 40.098-65.996 62.094-94.73-12.723-8.157-54.766-3.614-90.848 32.468zM253.895 510.39a14.971 14.971 0 0 0 17.347-2.785l42.43-42.425c32.848-32.856 38.629-75.246 31.176-88.688-32.047 24.153-64.512 44.547-94.801 61.621 2.09 11.801.7 23.25-4.242 56.688a14.968 14.968 0 0 0 8.09 15.59zM297.8 150.469c-17.542 17.547-17.542 46.09 0 63.636 17.548 17.547 46.095 17.547 63.641 0s17.547-46.09 0-63.636-46.093-17.547-63.64 0zM511.117 14.633c-.539-7.418-6.445-13.281-13.84-13.836-36.84-2.774-73.535 1.758-109.504 12.758 2.707 24.71 15.489 51.453 37.309 73.273 22.082 22.078 49.55 34.856 74.703 37.246 9.688-33.949 14.281-70.308 11.332-109.441zm0 0" fill="#ffffff" opacity="1" data-original="#000000"></path><path d="M403.871 108.043c-24.96-24.961-40.203-54.898-45.094-84.047-90.074 36.942-176.3 117.613-244.437 230.941l33.851 33.852c23.13-9.39 51.207-11.871 69.016 5.934 17.832 17.836 15.305 45.902 5.918 69l34.965 34.965c87.195-52.551 188.71-135.344 231.879-245.497-29.86-4.511-60.73-19.78-86.098-45.148zM382.652 235.32c-29.238 29.239-76.82 29.239-106.062 0-29.242-29.242-29.242-76.828 0-106.066s76.824-29.238 106.062 0c29.243 29.242 29.243 76.824 0 106.066zm0 0" fill="#ffffff" opacity="1" data-original="#000000"></path></g></svg>