<svg xmlns="http://www.w3.org/2000/svg" version="1.1" xmlns:xlink="http://www.w3.org/1999/xlink" width="512" height="512" x="0" y="0" viewBox="0 0 512 512" style="enable-background:new 0 0 512 512" xml:space="preserve"><g><path d="m439.44 411.595-77.319-77.318c-9.299-9.298-24.374-9.298-33.672 0l-32.036 32.036c-62.811-35.428-115.3-87.917-150.728-150.728l34.21-34.21c9.299-9.298 9.299-24.374 0-33.672l-77.319-77.316c-9.299-9.298-24.374-9.298-33.672 0L19.53 119.761l.191.191c-17.48 14.279-24.645 38.985-16.146 63.336C56.242 334.211 177.788 455.756 328.71 508.423c23.26 8.117 46.773 1.962 61.305-13.832l.05.05 49.374-49.374c9.3-9.298 9.3-24.373.001-33.672zM260.948 135.95c-9.271 0-16.787 7.516-16.787 16.787 0 9.271 7.515 16.787 16.787 16.787 44.954 0 81.528 36.573 81.528 81.527 0 9.271 7.516 16.787 16.787 16.787s16.787-7.516 16.787-16.787c0-63.466-51.635-115.101-115.102-115.101z" fill="#ffffff" opacity="1" data-original="#000000"></path><path d="M260.948 67.591c-9.271 0-16.787 7.516-16.787 16.787 0 9.271 7.515 16.787 16.787 16.787 82.648 0 149.887 67.239 149.887 149.885 0 9.271 7.516 16.787 16.787 16.787 9.271 0 16.787-7.516 16.787-16.787 0-101.16-82.3-183.459-183.461-183.459z" fill="#ffffff" opacity="1" data-original="#000000"></path><path d="M438.467 73.531C391.049 26.114 328.005 0 260.948 0c-9.271 0-16.787 7.516-16.787 16.787 0 9.271 7.516 16.787 16.787 16.787 119.916 0 217.477 97.559 217.477 217.477 0 9.271 7.516 16.787 16.787 16.787 9.271 0 16.787-7.516 16.787-16.787 0-67.059-26.114-130.103-73.532-177.52z" fill="#ffffff" opacity="1" data-original="#000000"></path></g></svg>